<svg viewBox="0 0 512 512" xmlns="http://www.w3.org/2000/svg"><g id="Layer_1" data-name="Layer 1"><path d="m298.329 386.78a121.91 121.91 0 0 1 -40.481-91.857c.527-66.37 54.742-120.636 121.112-121.223a122.222 122.222 0 0 1 123.323 123.123c-.471 64.824-52.523 118.671-117.3 121.218a122.236 122.236 0 0 1 -46.43-7.139l-64.123 15.809a5.149 5.149 0 0 1 -5.023-8.485z" fill="#6cf"/><path d="m315.055 380.568a7.932 7.932 0 0 1 -.972 11.806l-44.083 33.373a5.123 5.123 0 0 1 -.594-7.521l28.921-31.446a121.91 121.91 0 0 1 -40.481-91.857c.527-66.37 54.743-120.636 121.112-121.223a123.893 123.893 0 0 1 12.749.544c-61.544 5.811-110.219 57.811-110.718 120.679a121.807 121.807 0 0 0 34.066 85.645z" fill="#4da6ff"/><path d="m343.8 357.555-37.566-37.5c-19.749-19.724 5.824-45.33 25.573-25.607l28.2 28.151 67.981-66.181c20.723-20.271 46.029 5.6 25.306 25.87l-77.442 75.436a22.8 22.8 0 0 1 -32.052-.169z" fill="#f5f5f5"/><path d="m242.592 329.657a5.149 5.149 0 0 1 -5.023 8.485l-64.123-15.809a122.216 122.216 0 0 1 -46.43 7.139c-64.775-2.547-116.828-56.394-117.3-121.218a122.222 122.222 0 0 1 123.324-123.123c66.37.587 120.585 54.853 121.112 121.223a121.91 121.91 0 0 1 -40.481 91.857z" fill="#ff5959"/><path d="m165.569 324.873a122.508 122.508 0 0 1 -38.553 4.6c-64.775-2.547-116.828-56.394-117.3-121.218a122.235 122.235 0 0 1 108.501-122.355 122.268 122.268 0 0 0 -88.571 118.425c.47 64.824 52.523 118.672 117.3 121.218a123.6 123.6 0 0 0 18.623-.67z" fill="#e63a57"/><path d="m147.462 233.424c0 21.366-31.053 21.366-31.053 0v-8.224a46.377 46.377 0 0 1 25.032-40.93 20.4 20.4 0 1 0 -29.9-18.055c0 21.19-31.052 21.19-31.053 0a51.453 51.453 0 0 1 53.436-51.415 51.641 51.641 0 0 1 49.423 49.423 51.114 51.114 0 0 1 -27.4 47.5 15.409 15.409 0 0 0 -8.489 13.476zm-15.527 34.6a17.039 17.039 0 1 0 17.039 17.038 17.038 17.038 0 0 0 -17.039-17.043z" fill="#f5f5f5"/></g></svg>