<svg height="512" viewBox="0 0 64 64" width="512" xmlns="http://www.w3.org/2000/svg"><g id="Layer_54" data-name="Layer 54"><path d="m42.91527 55.78718h-21.832a2.50295 2.50295 0 0 0 -2.5 2.5v2a.49971.49971 0 0 0 .5.5h25.832a.49971.49971 0 0 0 .5-.5v-2a2.50295 2.50295 0 0 0 -2.5-2.5z" fill="#332e4a"/><rect fill="#332e4a" height="10.67" rx=".5" width="15.499" x="24.25" y="46.117"/><path d="m39.74974 55.7815v-9.1723h-15.5s15.5 9.44226 15.5 9.1723z" fill="#25203d"/><path d="m5.06078 10.49812h53.87793a3.061 3.061 0 0 1 3.061 3.061v30.49662a3.06152 3.06152 0 0 1 -3.06152 3.06152h-53.87741a3.061 3.061 0 0 1 -3.061-3.061v-30.4971a3.061 3.061 0 0 1 3.061-3.06104z" fill="#2a78fb"/><g fill="#bbcdfb"><path d="m61.99974 44.05488a3.06 3.06 0 0 1 -3.06 3.06h-53.88a3.06 3.06 0 0 1 -3.06-3.06z"/><path d="m61.99974 13.55812a3.06 3.06 0 0 0 -3.06-3.06h-53.88a3.06 3.06 0 0 0 -3.06 3.06z"/><path d="m62.00026 13.5591h-1.16l-1.07-2.94a3.05068 3.05068 0 0 1 2.23 2.94z"/></g><path d="m45.41979 58.28493v2a.50151.50151 0 0 1 -.5.5h-25.84a.50147.50147 0 0 1 -.5-.5v-2z" fill="#25203d"/><path d="m5.05974 10.50264v36.61a3.06 3.06 0 0 1 -3.06-3.06v-30.49a3.06 3.06 0 0 1 3.06-3.06z" fill="#145cd6"/><path d="m5.05974 44.05263v3.06a3.06 3.06 0 0 1 -3.06-3.06z" fill="#97b0f0"/><path d="m5.05974 13.55812v-3.06a3.06 3.06 0 0 0 -3.06 3.06z" fill="#97b0f0"/><path d="m58.93977 10.50264v3.05646h-15.91949l3.03 8.34a3.3876 3.3876 0 0 0 3.17 2.21 3.31749 3.31749 0 0 0 1.15-.2l8.56952-3.1236v26.32712a3.06 3.06 0 0 0 3.06-3.06v-30.49a3.06 3.06 0 0 0 -3.06003-3.05998z" fill="#145cd6"/><path d="m58.93974 44.05263v3.06a3.06 3.06 0 0 0 3.06-3.06z" fill="#97b0f0"/><path d="m57.33359 13.55812-.98115-3.06h2.5873a3.06 3.06 0 0 1 3.06 3.06z" fill="#97b0f0"/><path d="m25.0304 16.85084a2.6037 2.6037 0 0 0 -1.4795-1.35547l-10.80175-3.94137a2.64163 2.64163 0 0 0 -3.36915 1.57028l-3.93017 10.80957a2.62449 2.62449 0 0 0 1.56885 3.36035l10.80176 3.94141a2.63721 2.63721 0 0 0 3.36962-1.57129l3.93018-10.80859a2.605 2.605 0 0 0 -.08984-2.00489z" fill="#145cd6"/><path d="m24.12086 14.45515a2.60361 2.60361 0 0 0 -1.47949-1.35547l-10.80176-3.9414a2.64163 2.64163 0 0 0 -3.36914 1.57031l-2.23974 6.14941a.49824.49824 0 0 0 .11767.52539.50471.50471 0 0 0 .52637.11426l5.53906-2.06347 1.66944 3.33882a.50082.50082 0 0 0 .29.251.5155.5155 0 0 0 .38281-.02832l5.35693-2.707 1.813 3.93945a.49958.49958 0 0 0 .4541.291h.021a.50107.50107 0 0 0 .44922-.3291l1.36035-3.75a2.60492 2.60492 0 0 0 -.08982-2.00488z" fill="#2a78fb"/><path d="m22.83424 19.83015-2.02978-4.41015a.49706.49706 0 0 0 -.28955-.2627.4855.4855 0 0 0 -.39014.02539l-5.37158 2.71387-1.64551-3.291a.49983.49983 0 0 0 -.62158-.24511l-5.96 2.21972a.50117.50117 0 0 0 -.29834.30567l-1.04733 2.89255a.49995.49995 0 0 0 .29883.64063l14.8003 5.37988a.49074.49074 0 0 0 .17089.03028.49957.49957 0 0 0 .46973-.32911l1.69682-4.67187.23-.60059a.49383.49383 0 0 0 .0332-.17871v-.00976a.49745.49745 0 0 0 -.04596-.20899z" fill="#5bb774"/><path d="m21.09039 25.02994-15.739-5.7211-.00018.00009-.81091 2.22923a2.62447 2.62447 0 0 0 1.56885 3.36035l10.80175 3.94141a2.63722 2.63722 0 0 0 3.36963-1.57129z" fill="#009670"/><path d="m59.20778 14.83894-3.42529-9.41113a3.37331 3.37331 0 0 0 -4.31592-2.0127l-9.41157 3.42578a3.366 3.366 0 0 0 -2.01221 4.31543l3.42521 9.41114a3.367 3.367 0 0 0 4.316 2.01269l9.41162-3.42578a3.366 3.366 0 0 0 2.01221-4.31543z" fill="#db375b"/><path d="m53.54079 11.57136a1.4381 1.4381 0 0 0 -1.11475-.93359l-5.45313-.96191a1.455 1.455 0 0 0 -1.6206 1.93066l1.89453 5.2041a1.44214 1.44214 0 0 0 1.11523.93555 1.55273 1.55273 0 0 0 .25879.02246 1.43566 1.43566 0 0 0 1.10791-.52051l3.56006-4.24219a1.44158 1.44158 0 0 0 .25196-1.43457z" fill="#ffd54f"/><path d="m41.51832 21.48591a.497.497 0 0 0 -.416-.10253l-12.9502 2.64941a.50067.50067 0 0 0 -.3999.49023v9.0036a3.49448 3.49448 0 1 0 1 2.44172v-6.94727l11.9502-2.4538v3.95935a3.49448 3.49448 0 1 0 1 2.44172v-11.09473a.5006.5006 0 0 0 -.1841-.3877z" fill="#145cd6"/><path d="m40.5652 20.82527a.497.497 0 0 0 -.416-.10254l-12.9502 2.64941a.50068.50068 0 0 0 -.3999.49024v9.00362a3.49448 3.49448 0 1 0 1 2.44171v-6.94728l11.95019-2.4538v3.95937a3.49448 3.49448 0 1 0 1 2.44171v-11.09471a.50056.50056 0 0 0 -.18409-.38773z" fill="#ffd54f"/></g></svg>