<svg id="Flat" enable-background="new 0 0 512 512" viewBox="0 0 512 512" xmlns="http://www.w3.org/2000/svg"><path d="m317.2 72.08 34.64 73.28-43.84 19.6-34.16-72.32c-15.12-31.92-53.28-45.6-85.2-30.48-31.92 15.04-45.6 53.28-30.56 85.2l43.84 92.64h-49.92c-1.04 0-2.08.08-3.12.16l-34.16-72.32c-26.4-55.84-2.48-122.72 53.36-149.12s122.72-2.48 149.12 53.36z" fill="#cacae5"/><path d="m248 40c-40-16-80 0-104 32-24 40 8 96 0 136 0 3.845-1.883 7.681-5.023 11.193l9.903 20.967c1.04-.08 2.08-.16 3.12-.16h49.92l-43.84-92.64c-15.04-31.92-1.36-70.16 30.56-85.2 31.92-15.12 70.08-1.44 85.2 30.48l34.16 72.32 24.716-11.05c-21.692-49.617-44.716-97.91-84.716-113.91z" fill="#7876ab"/><path d="m283.2 421.44c1.36 6.24-3.36 12.16-9.76 12.16h-34.88c-6.4 0-11.12-5.92-9.76-12.16l13.6-61.04c-11.04-5.76-18.16-17.92-15.84-31.6 2-12.16 11.84-22.16 24-24.32 18.88-3.36 35.36 11.12 35.36 29.44 0 11.52-6.64 21.44-16.32 26.48z" fill="#5e5e84"/><path d="m201.92 240h158.08c17.68 0 32 14.32 32 32v200c0 17.68-14.32 32-32 32h-208c-17.68 0-32-14.32-32-32v-200c0-16.64 12.64-30.32 28.88-31.84 1.04-.08 2.08-.16 3.12-.16zm71.52 193.6c6.4 0 11.12-5.92 9.76-12.16l-13.6-61.04c9.68-5.04 16.32-14.96 16.32-26.48 0-18.32-16.48-32.8-35.36-29.44-12.16 2.16-22 12.16-24 24.32-2.32 13.68 4.8 25.84 15.84 31.6l-13.6 61.04c-1.36 6.24 3.36 12.16 9.76 12.16z" fill="#ffc32c"/><path d="m392 272v200c0 17.68-14.32 32-32 32h-208c-14.88 0-27.44-10.16-30.96-24h206.96c17.68 0 32-14.32 32-32v-200c0-2.8-.32-5.44-1.04-8h1.04c17.68 0 32 14.32 32 32z" fill="#ffa300"/><path d="m144 290.048v-15.951c0-5.576 4.52-10.097 10.097-10.097h18.61c9.374 0 13.688 11.662 6.571 17.763l-18.61 15.951c-6.55 5.613-16.668.96-16.668-7.666z" fill="#ffedc5"/><g><path d="m368 120c-4.418 0-8-3.578-8-8v-40c0-4.422 3.582-8 8-8s8 3.578 8 8v40c0 4.422-3.582 8-8 8z" fill="#ffc32c"/></g><g><path d="m392 128c-2.047 0-4.094-.781-5.656-2.344-3.125-3.125-3.125-8.188 0-11.312l32-32c3.125-3.125 8.188-3.125 11.312 0s3.125 8.188 0 11.312l-32 32c-1.562 1.563-3.609 2.344-5.656 2.344z" fill="#ffc32c"/></g><g><path d="m440 152h-32c-4.418 0-8-3.578-8-8s3.582-8 8-8h32c4.418 0 8 3.578 8 8s-3.582 8-8 8z" fill="#ffc32c"/></g></svg>