<svg id="Layer_1" enable-background="new 0 0 512 512" viewBox="0 0 512 512" xmlns="http://www.w3.org/2000/svg"><g><g><path clip-rule="evenodd" d="m43.258 430.551h385.868c23.502 0 42.758-19.256 42.758-42.787v-210.968c0-23.531-19.256-42.758-42.758-42.758h-385.868c-23.502 0-42.758 19.227-42.758 42.758v210.968c0 23.531 19.256 42.787 42.758 42.787z" fill="#ffa000" fill-rule="evenodd"/></g><g><path clip-rule="evenodd" d="m454.49 422.145-195.29-135.313c-12.653-8.784-32.694-9.221-44.532-1.018l-196.774 136.331c7.097 5.265 15.882 8.406 25.364 8.406h385.868c9.453 0 18.266-3.142 25.364-8.406z" fill="#fb8c00" fill-rule="evenodd"/></g><g><path clip-rule="evenodd" d="m454.49 142.444-195.29 161.898c-11.868 9.832-33.45 10.21-44.532 1.018l-196.774-162.916c7.097-5.294 15.882-8.406 25.364-8.406h385.868c9.453 0 18.266 3.113 25.364 8.406z" fill="#ffb300" fill-rule="evenodd"/></g><g><path clip-rule="evenodd" d="m420.196 81.449c50.437 0 91.304 40.896 91.304 91.333s-40.867 91.304-91.304 91.304c-13.147 0-25.655-2.763-36.94-7.766l-38.715 21.611 9.395-42.322c-15.532-16.376-25.044-38.482-25.044-62.828 0-50.436 40.867-91.332 91.304-91.332z" fill="#fc4654" fill-rule="evenodd"/></g><path clip-rule="evenodd" d="m431.772 117.895v67.919c0 6.37-5.207 11.547-11.577 11.547s-11.576-5.177-11.576-11.547v-67.919c0-6.37 5.207-11.576 11.576-11.576 6.371-.001 11.577 5.206 11.577 11.576zm-11.576 98.198c-6.37 0-11.576 5.207-11.576 11.576 0 6.37 5.207 11.548 11.576 11.548 6.37 0 11.577-5.178 11.577-11.548-.001-6.37-5.207-11.576-11.577-11.576z" fill="#fff" fill-rule="evenodd"/></g></svg>